<?xml version="1.0" encoding="UTF-8" standalone="yes"?>
<svg version="1.1" width="64" height="64" color-interpolation="linearRGB"
     xmlns:svg="http://www.w3.org/2000/svg" xmlns="http://www.w3.org/2000/svg">
 <g>
  <path style="fill:#010101; fill-opacity:0.5019"
        d="M36 61H41L64 30L58 27L59 31L36 61z"
  />
  <path style="fill:none; stroke:#010000; stroke-width:4"
        d="M2 28V41L36 59L58 30V17L25 5L2 28z"
  />
  <linearGradient id="gradient0" gradientUnits="userSpaceOnUse" x1="13.84" y1="-38.14" x2="58.34" y2="-27.7">
   <stop offset="0" stop-color="#ffe3c7"/>
   <stop offset="1" stop-color="#f3b476"/>
  </linearGradient>
  <path style="fill:url(#gradient0)"
        d="M2 28L36 43L58 17L25 5L2 28z"
  />
  <linearGradient id="gradient1" gradientUnits="userSpaceOnUse" x1="44.72" y1="-7.9" x2="86.1" y2="10.51">
   <stop offset="0" stop-color="#76401b"/>
   <stop offset="1" stop-color="#a3784b"/>
  </linearGradient>
  <path style="fill:url(#gradient1)"
        d="M36 43V59L58 30V17L36 43z"
  />
  <linearGradient id="gradient2" gradientUnits="userSpaceOnUse" x1="22.97" y1="92.59" x2="-14.6" y2="67.29">
   <stop offset="0" stop-color="#be8852"/>
   <stop offset="1" stop-color="#dca977"/>
  </linearGradient>
  <path style="fill:url(#gradient2)"
        d="M2 28V41L36 59V43L2 28z"
  />
 </g>
</svg>
