<svg width="64" height="64" color-interpolation="linearRGB" xmlns="http://www.w3.org/2000/svg"><path d="M36 61h5l23-31-6-3 1 4-23 30z" fill="#010101" fill-opacity=".502"/><path d="M2 28v13l34 18 22-29V17L25 5 2 28z" fill="none" stroke="#010000" stroke-width="4"/><linearGradient id="a" gradientUnits="userSpaceOnUse" x1="13.84" y1="-38.14" x2="58.34" y2="-27.7"><stop offset="0" stop-color="#ffe3c7"/><stop offset="1" stop-color="#f3b476"/></linearGradient><path d="M2 28l34 15 22-26L25 5 2 28z" fill="url(#a)"/><linearGradient id="b" gradientUnits="userSpaceOnUse" x1="44.72" y1="-7.9" x2="86.1" y2="10.51"><stop offset="0" stop-color="#76401b"/><stop offset="1" stop-color="#a3784b"/></linearGradient><path d="M36 43v16l22-29V17L36 43z" fill="url(#b)"/><linearGradient id="c" gradientUnits="userSpaceOnUse" x1="22.97" y1="92.59" x2="-14.6" y2="67.29"><stop offset="0" stop-color="#be8852"/><stop offset="1" stop-color="#dca977"/></linearGradient><path d="M2 28v13l34 18V43L2 28z" fill="url(#c)"/></svg>